<svg xmlns="http://www.w3.org/2000/svg" width="173" height="48" viewBox="0 0 173 48" fill="none">
<path fill-rule="evenodd" clip-rule="evenodd" d="M98.1467 30.6529H82.5411V11.6997H98.1467V16.8195H89.9008V19.0102H97.6544V23.1947H89.9008V25.5331H98.1467V30.6529ZM115.524 30.6529H99.9189V11.6997H115.524V16.8195H107.279V19.0102H115.032V23.1947H107.279V25.5331H115.524V30.6529ZM172.162 30.6529C171.099 27.7548 169.612 24.6624 167.611 21.1962C169.951 20.51 171.35 19.0348 171.35 16.7703C171.35 13.3243 168.175 11.6997 163.154 11.6997H152.815V30.6529H160.2V22.8129C161.84 25.5761 163.049 28.1835 163.843 30.6529H172.162ZM160.2 20.1671V16.8195H162.76C163.843 16.8195 164.458 17.4103 164.458 18.4933C164.458 19.5763 163.843 20.1671 162.76 20.1671H160.2ZM151.043 30.6529H135.438V11.6997H151.043V16.8195H142.797V19.0102H150.551V23.1947H142.797V25.5331H151.043V30.6529ZM117.297 16.8195H124.916C121.755 19.406 119.153 22.3356 117.149 25.5331V30.6529H133.912V25.5331H125.533C127.453 22.7398 130.136 19.9584 133.912 16.8195V11.6997H117.297V16.8195ZM61.8652 11.6999H71.3664C77.2493 11.6999 81.4091 15.6136 81.4091 21.1764C81.4091 26.7393 77.2493 30.653 71.3664 30.653H61.8652V11.6999ZM69.2496 25.5332H70.9726C72.8187 25.5332 73.8033 24.3025 73.8033 21.1764C73.8033 18.0504 72.8187 16.8197 70.9726 16.8197H69.2496V25.5332Z" fill="#0F0D13"/>
<path fill-rule="evenodd" clip-rule="evenodd" d="M41.0955 7.32313C41.5396 4.74914 42.1912 3.13054 42.913 3.12744H42.9146C44.2606 3.13208 45.3517 8.7454 45.3517 15.6759C45.3517 22.6063 44.259 28.2243 42.9115 28.2243C42.3591 28.2243 41.8494 27.2704 41.4389 25.6719C40.7903 31.5233 39.4443 35.5459 37.8862 35.5459C36.6806 35.5459 35.5986 33.1296 34.8722 29.3188C34.3762 36.5662 33.1279 41.708 31.6689 41.708C30.7533 41.708 29.9185 39.6705 29.3005 36.3529C28.5573 43.2014 26.8405 48 24.8382 48C22.836 48 21.1162 43.2029 20.376 36.3529C19.7625 39.6705 18.9278 41.708 18.0075 41.708C16.5486 41.708 15.3033 36.5662 14.8043 29.3188C14.0779 33.1296 12.999 35.5459 11.7903 35.5459C10.2337 35.5459 8.88621 31.5249 8.23763 25.6719C7.83017 27.2751 7.31741 28.2243 6.76497 28.2243C5.41745 28.2243 4.32478 22.6063 4.32478 15.6759C4.32478 8.7454 5.41745 3.12744 6.76497 3.12744C7.48833 3.12744 8.13538 4.75068 8.58405 7.32313C9.30283 2.88473 10.4703 0 11.7903 0C13.3576 0 14.7158 4.07975 15.3583 10.0038C15.987 5.69216 16.9408 2.94348 18.0091 2.94348C19.5061 2.94348 20.7789 8.34964 21.2505 15.8908C22.1371 12.0243 23.4205 9.59876 24.8413 9.59876C26.2621 9.59876 27.5455 12.0259 28.4306 15.8908C28.9037 8.34964 30.1749 2.94348 31.672 2.94348C32.7387 2.94348 33.691 5.69216 34.3228 10.0038C34.9637 4.07975 36.3219 0 37.8892 0C39.2047 0 40.3767 2.88628 41.0955 7.32313ZM0.837891 14.4417C0.837891 11.3436 1.45748 8.83142 2.22204 8.83142C2.9866 8.83142 3.60619 11.3436 3.60619 14.4417C3.60619 17.5397 2.9866 20.0519 2.22204 20.0519C1.45748 20.0519 0.837891 17.5397 0.837891 14.4417ZM46.0693 14.4417C46.0693 11.3436 46.6888 8.83142 47.4534 8.83142C48.218 8.83142 48.8376 11.3436 48.8376 14.4417C48.8376 17.5397 48.218 20.0519 47.4534 20.0519C46.6888 20.0519 46.0693 17.5397 46.0693 14.4417Z" fill="#A238FF"/>
</svg>