<svg width="370" height="370" viewBox="0 0 370 370" fill="none" xmlns="http://www.w3.org/2000/svg">
<rect width="370" height="370" fill="url(#paint0_linear_113_103)"/>
<path fill-rule="evenodd" clip-rule="evenodd" d="M110.555 124.851C102.639 134.107 97.8433 146.754 97.8433 159.957C97.8433 189.554 119.339 214.399 142.035 232.279C153.272 241.133 164.535 248.063 173.001 252.783C177.228 255.14 180.743 256.937 183.187 258.139C183.675 258.379 184.119 258.595 184.518 258.786C184.928 258.579 185.385 258.345 185.887 258.084C188.338 256.815 191.859 254.924 196.093 252.463C204.572 247.534 215.853 240.351 227.109 231.323C249.887 213.054 271.336 188.214 271.336 159.957C271.336 146.756 266.541 134.109 258.626 124.853C250.737 115.626 239.963 109.964 227.794 109.964C210.972 109.964 197.924 120.032 189.456 135.88L184.59 144.989L179.723 135.88C171.255 120.031 158.208 109.964 141.386 109.964C129.217 109.964 118.444 115.625 110.555 124.851ZM184.59 264.408C182.238 268.897 182.234 268.896 182.234 268.896L182.21 268.885L182.148 268.857L181.926 268.757C181.735 268.67 181.46 268.544 181.105 268.379C180.396 268.049 179.369 267.563 178.071 266.925C175.476 265.648 171.79 263.763 167.376 261.302C158.56 256.387 146.782 249.144 134.977 239.844C111.589 221.418 87 194.038 87 159.957C87 144.635 92.5368 129.795 102.029 118.695C111.547 107.564 125.256 100 141.386 100C160.381 100 174.826 109.782 184.59 123.584C194.353 109.782 208.798 100 227.794 100C243.926 100 257.634 107.565 267.152 118.696C276.644 129.797 282.18 144.638 282.18 159.957C282.18 192.751 257.545 220.137 234.239 238.83C222.453 248.284 210.692 255.767 201.889 260.883C197.483 263.445 193.803 265.422 191.213 266.764C189.918 267.435 188.895 267.948 188.188 268.296C187.835 268.471 187.56 268.604 187.371 268.695L187.151 268.8L187.09 268.829L187.072 268.838L187.066 268.84C187.066 268.84 187.062 268.842 184.59 264.408ZM184.59 264.408L187.066 268.84L184.665 269.971L182.234 268.896L184.59 264.408Z" fill="white" fill-opacity="0.54"/>
<defs>
<linearGradient id="paint0_linear_113_103" x1="-7.13282e-06" y1="13" x2="370" y2="403" gradientUnits="userSpaceOnUse">
<stop stop-color="white"/>
<stop offset="1" stop-color="#290588"/>
</linearGradient>
</defs>
</svg>
