<svg width="90" height="90" viewBox="0 0 90 90" fill="none" xmlns="http://www.w3.org/2000/svg">
<rect x="5" y="5" width="80" height="80" rx="8" fill="#25D1DA"/>
<path d="M54.263 41.2117C54.263 41.664 54.0519 42.1163 53.66 42.3876C53.1775 42.6892 52.5745 42.8399 52.092 42.7193C51.0669 42.7193 50.0417 42.5685 49.0466 42.267C48.888 42.2141 48.7062 42.1845 48.5419 42.1576C48.5188 42.1538 48.496 42.1501 48.4738 42.1464C48.2928 42.1464 48.2024 42.2972 48.2024 42.5384V43.1414C48.1722 43.2922 48.2325 43.443 48.2928 43.5636C48.3833 43.6842 48.5039 43.7445 48.6547 43.8048C49.7402 44.2269 50.8859 44.438 52.0317 44.4079C53.1775 44.4682 54.2932 44.1365 55.1977 43.5033C55.9817 42.9304 56.4038 42.0258 56.3737 41.0911C56.3737 40.4579 56.1626 39.8247 55.7706 39.3422C55.258 38.8296 54.5947 38.4075 53.9012 38.1663L52.1222 37.5331C51.6096 37.3823 51.1272 37.1411 50.705 36.8396C50.4638 36.6285 50.3131 36.2968 50.3432 35.9651C50.3432 35.0304 51.0669 34.5781 52.484 34.5781C53.2981 34.5781 54.1123 34.6987 54.8962 34.9098C55.047 34.9701 55.2279 35.0304 55.4088 35.0304C55.6199 35.0304 55.7103 34.8796 55.7103 34.6384V34.0655C55.7103 33.9148 55.6802 33.764 55.5897 33.6434C55.4691 33.5529 55.3485 33.4625 55.1977 33.4323C54.2932 33.1308 53.3283 32.9499 52.3634 32.9499C51.3081 32.8896 50.2527 33.1911 49.4085 33.7942C48.6848 34.3369 48.2627 35.1812 48.2928 36.0556C48.2928 37.4426 49.107 38.4678 50.7653 39.0407L52.6649 39.7342C53.1172 39.8548 53.5695 40.0659 53.9313 40.3674C54.1424 40.5785 54.263 40.9102 54.263 41.2117Z" fill="#000008"/>
<path d="M44.4951 32.9199C44.2841 32.95 44.1333 33.1611 44.1635 33.3721L44.073 41.6339C43.1684 42.2973 42.0528 42.6591 40.9371 42.6893C40.3944 42.7496 39.8517 42.5385 39.4898 42.1164C39.1581 41.6038 38.9772 41.0007 39.0375 40.3675V33.2515C39.0074 33.0405 38.8265 32.8897 38.6154 32.9199H37.2585C37.0475 32.95 36.8967 33.1611 36.9269 33.3721V41.061C36.8666 41.9656 37.1681 42.8702 37.741 43.5637C38.3742 44.1668 39.2486 44.4984 40.123 44.4381C41.6608 44.3778 43.1081 43.8652 44.2841 42.9004L44.4348 43.6843C44.465 43.8049 44.5253 43.9255 44.6157 44.016C44.7062 44.0763 44.8268 44.1065 44.9474 44.1065H45.9424C46.1535 44.0763 46.3043 43.8652 46.2741 43.6542V33.2515C46.244 33.0405 46.063 32.8897 45.852 32.9199H44.4951Z" fill="#000008"/>
<path d="M32.0422 43.8049C32.0723 44.016 32.2834 44.1668 32.4945 44.1366H33.8212C34.0322 44.1065 34.183 43.8954 34.1528 43.6843V35.9351C34.2132 35.0607 33.9116 34.1863 33.3387 33.4927C32.7055 32.9199 31.8613 32.5882 31.017 32.6485C29.4189 32.7088 27.9113 33.2515 26.675 34.2164C26.1625 33.1611 25.2579 32.6485 23.901 32.6485C22.4236 32.7088 20.9762 33.1912 19.8003 34.0958L19.6797 33.4023C19.6495 33.2817 19.5892 33.1611 19.4988 33.0706C19.4083 33.0103 19.2877 32.9802 19.1671 32.9802H18.0816C17.8705 33.0405 17.7198 33.2214 17.7499 33.4324V43.8351C17.7499 44.0461 17.961 44.1969 18.1721 44.1668H19.5892C19.8003 44.1366 19.9511 43.9255 19.9209 43.7145V35.3924C20.8556 34.7592 21.9713 34.4275 23.1171 34.4275C23.6297 34.3672 24.1121 34.5782 24.4438 34.9401C24.7755 35.4225 24.8961 35.9954 24.8659 36.5683V43.8351C24.8961 44.0461 25.1071 44.1969 25.3182 44.1668H26.7354C26.9464 44.1366 27.0972 43.9255 27.067 43.7145V35.3924C28.0319 34.7592 29.1475 34.4275 30.2933 34.3973C30.8059 34.337 31.2884 34.5481 31.62 34.9099C31.9517 35.3924 32.0723 35.9653 32.0422 36.5382V43.8049Z" fill="#000008"/>
<path d="M64.2064 38.6187C64.2064 37.2618 64.4778 36.2668 65.0206 35.6637C65.5633 35.0607 66.4377 34.729 67.5534 34.6988C68.1564 34.6988 68.7896 34.7893 69.3625 34.9702C69.4831 35.0004 69.6037 35.0305 69.7243 35.0305C69.9053 35.0305 69.9957 34.9099 69.9957 34.6084V34.0355C70.0259 33.8546 69.9656 33.7038 69.9053 33.5832C69.8148 33.4927 69.6942 33.4023 69.5736 33.3721C68.8499 33.1007 68.066 32.95 67.282 32.95C65.8045 32.8595 64.3874 33.4023 63.332 34.4576C62.3973 35.4828 61.945 36.8698 61.945 38.7393C61.945 40.6087 62.3973 42.0259 63.3019 42.9908C64.2065 43.9858 65.503 44.4683 67.2217 44.4683C68.066 44.4984 68.9102 44.3477 69.6942 44.016C69.8449 43.9557 69.9656 43.8954 70.056 43.7748C70.1163 43.6541 70.1465 43.5034 70.1465 43.3526V42.7797C70.1465 42.5083 70.056 42.3576 69.8751 42.3576C69.7752 42.3576 69.6959 42.3783 69.6031 42.4025C69.5839 42.4075 69.5641 42.4127 69.5434 42.4179C68.9102 42.5988 68.2469 42.7194 67.5835 42.7194C66.6488 42.8099 65.7141 42.448 65.0206 41.7847C64.4778 41.1816 64.2064 40.2168 64.2064 38.89V38.6187Z" fill="#000008"/>
<path d="M59.8645 33.8847C59.8343 33.6736 59.6534 33.5229 59.4424 33.553H58.0252C57.8443 33.5832 57.6935 33.7641 57.7237 33.9752V44.1064C57.7538 44.3175 57.9347 44.4683 58.1458 44.4381H59.5328C59.7439 44.408 59.8946 44.227 59.8645 44.016V33.8847Z" fill="#000008"/>
<path d="M59.8042 31.3519C60.2866 30.779 60.2866 29.9347 59.8042 29.3618C59.2313 28.8794 58.387 28.8794 57.8141 29.3618C57.3317 29.9347 57.3317 30.779 57.8141 31.3519C58.387 31.8343 59.2313 31.8343 59.8042 31.3519Z" fill="#000008"/>
<path d="M17.6778 49.6627C25.0314 56.6884 34.5864 60.5292 44.4692 60.4824C51.8697 60.4824 60.4879 57.9999 66.4832 53.3629C67.4668 52.6135 66.6237 51.4425 65.6401 51.9109C59.1296 54.7681 52.1975 56.2669 45.1718 56.3137C35.7105 56.3606 26.4834 53.7376 18.2867 48.8196C17.6309 48.398 17.1157 49.1475 17.6778 49.6627Z" fill="#000008"/>
<path d="M61.7057 50.3184C63.6729 50.0842 68.0288 49.569 68.7783 50.5526C69.5059 51.5077 67.9815 55.4655 67.2492 57.3666C67.2273 57.4235 67.2061 57.4785 67.1857 57.5315C66.9516 58.0936 67.4199 58.3278 67.9352 57.9062C71.167 55.1428 72.0101 49.3816 71.3544 48.5386C70.6986 47.6955 65.0312 46.9929 61.5652 49.4753C61.0031 49.85 61.0968 50.3653 61.7057 50.3184Z" fill="#000008"/>
</svg>
