<svg width="90" height="90" viewBox="0 0 90 90" fill="none" xmlns="http://www.w3.org/2000/svg">
<path d="M68.6624 40.4609C55.7686 32.8036 34.5 32.0996 22.1913 35.8358C20.2148 36.4352 18.1245 35.3194 17.5256 33.3429C16.9266 31.3654 18.0414 29.2767 20.0194 28.6758C34.1489 24.3865 57.6376 25.2152 72.4813 34.0264C74.2591 35.0816 74.8423 37.3776 73.7886 39.1526C72.734 40.9304 70.436 41.5165 68.6624 40.4609ZM68.2402 51.8022C67.3355 53.2701 65.4163 53.7305 63.9503 52.8292C53.2007 46.2218 36.809 44.3079 24.0914 48.1678C22.4421 48.6665 20.7001 47.7365 20.1995 46.0905C19.7022 44.4411 20.6327 42.7025 22.2787 42.201C36.8071 37.7927 54.8677 39.9278 67.2142 47.5148C68.6801 48.4176 69.1415 50.3382 68.2402 51.8022ZM63.3456 62.6941C62.6268 63.873 61.0921 64.2422 59.9175 63.5238C50.5239 57.7829 38.701 56.4866 24.7773 59.6668C23.4356 59.9744 22.0986 59.1337 21.7925 57.792C21.4853 56.4507 22.3227 55.1133 23.6677 54.8071C38.9045 51.3241 51.975 52.823 62.5183 59.2655C63.6938 59.9835 64.064 61.5191 63.3456 62.6941ZM45.0008 5C22.9092 5 5 22.9086 5 44.9995C5 67.0928 22.9092 85 45.0008 85C67.0928 85 85.0011 67.0928 85.0011 44.9995C85.0011 22.9086 67.0928 5 45.0008 5Z" fill="#1ED760"/>
</svg>
