<svg width="1446" height="296" viewBox="0 0 1446 296" fill="none" xmlns="http://www.w3.org/2000/svg">
<mask id="path-1-outside-1_12_35" maskUnits="userSpaceOnUse" x="-3" y="-2" width="1451" height="300" fill="black">
<rect fill="white" x="-3" y="-2" width="1451" height="300"/>
<path d="M48 7.99998L133.6 237.2L218.8 7.99998H266.4L154.8 292H112.4L0.4 7.99998H48ZM362.15 296C345.617 296 330.817 293.2 317.75 287.6C304.683 281.733 293.35 273.733 283.75 263.6C274.417 253.467 267.217 242 262.15 229.2C257.083 216.133 254.55 202.267 254.55 187.6C254.55 172.933 257.083 159.067 262.15 146C267.217 132.933 274.417 121.467 283.75 111.6C293.35 101.467 304.683 93.6 317.75 88C331.083 82.1333 345.883 79.2 362.15 79.2C378.417 79.2 393.083 82.1333 406.15 88C419.483 93.6 430.817 101.467 440.15 111.6C449.75 121.467 457.083 132.933 462.15 146C467.217 159.067 469.75 172.933 469.75 187.6C469.75 202.267 467.217 216.133 462.15 229.2C457.083 242 449.75 253.467 440.15 263.6C430.817 273.733 419.483 281.733 406.15 287.6C393.083 293.2 378.417 296 362.15 296ZM299.75 188C299.75 201.333 302.55 213.333 308.15 224C313.75 234.667 321.217 243.067 330.55 249.2C339.883 255.333 350.417 258.4 362.15 258.4C373.617 258.4 384.017 255.333 393.35 249.2C402.95 242.8 410.55 234.267 416.15 223.6C421.75 212.667 424.55 200.667 424.55 187.6C424.55 174.267 421.75 162.267 416.15 151.6C410.55 140.933 402.95 132.533 393.35 126.4C384.017 120 373.617 116.8 362.15 116.8C350.417 116.8 339.883 120 330.55 126.4C321.217 132.8 313.75 141.333 308.15 152C302.55 162.4 299.75 174.4 299.75 188ZM509.175 -7.62939e-06H553.175V231.6C553.175 242.267 554.775 249.067 557.975 252C561.175 254.933 565.175 256.4 569.975 256.4C575.308 256.4 580.242 255.867 584.775 254.8C589.575 253.733 593.708 252.4 597.175 250.8L603.575 285.6C597.175 288.267 589.575 290.533 580.775 292.4C571.975 294.267 564.108 295.2 557.175 295.2C542.242 295.2 530.508 291.067 521.975 282.8C513.442 274.267 509.175 262.533 509.175 247.6V-7.62939e-06ZM627.088 210.8V82.8H671.088V202C671.088 220.667 674.421 234.8 681.088 244.4C688.021 253.733 698.021 258.4 711.088 258.4C719.354 258.4 727.354 256.667 735.088 253.2C743.088 249.733 750.288 244.667 756.688 238C763.354 231.067 768.688 222.8 772.688 213.2V82.8H816.688V242.4C816.688 247.467 817.621 251.067 819.488 253.2C821.354 255.333 824.421 256.533 828.687 256.8V292C824.154 292.8 820.421 293.333 817.488 293.6C814.554 293.867 811.754 294 809.088 294C801.088 294 794.421 291.867 789.088 287.6C783.754 283.067 780.688 277.333 779.888 270.4L779.088 249.6C769.754 264.8 757.621 276.4 742.688 284.4C727.754 292.133 711.354 296 693.488 296C671.621 296 655.088 288.8 643.888 274.4C632.688 260 627.088 238.8 627.088 210.8ZM1192.84 292H1148.84V174.8C1148.84 155.333 1145.64 141.067 1139.24 132C1132.84 122.933 1123.5 118.4 1111.24 118.4C1098.97 118.4 1087.5 123.067 1076.84 132.4C1066.44 141.467 1059.1 153.333 1054.84 168V292H1010.84V174.8C1010.84 155.333 1007.64 141.067 1001.24 132C994.838 122.933 985.638 118.4 973.638 118.4C961.371 118.4 949.904 122.933 939.238 132C928.838 141.067 921.371 152.933 916.838 167.6V292H872.837V82.8H912.838V124.8C921.104 110.133 931.904 98.9333 945.238 91.2C958.838 83.2 974.304 79.2 991.638 79.2C1008.97 79.2 1022.57 83.7333 1032.44 92.8C1042.57 101.867 1048.84 113.2 1051.24 126.8C1060.3 111.333 1071.37 99.6 1084.44 91.6C1097.77 83.3333 1112.97 79.2 1130.04 79.2C1142.3 79.2 1152.57 81.4667 1160.84 86C1169.1 90.5333 1175.5 96.8 1180.04 104.8C1184.57 112.533 1187.77 121.6 1189.64 132C1191.77 142.133 1192.84 152.933 1192.84 164.4V292ZM1338.34 296C1322.07 296 1307.27 293.2 1293.94 287.6C1280.87 281.733 1269.54 273.867 1259.94 264C1250.34 253.867 1242.87 242.4 1237.54 229.6C1232.47 216.533 1229.94 202.667 1229.94 188C1229.94 168.267 1234.47 150.267 1243.54 134C1252.61 117.467 1265.27 104.267 1281.54 94.4C1297.81 84.2667 1316.87 79.2 1338.74 79.2C1360.61 79.2 1379.41 84.2667 1395.14 94.4C1411.14 104.267 1423.54 117.333 1432.34 133.6C1441.14 149.867 1445.54 167.333 1445.54 186C1445.54 189.2 1445.41 192.267 1445.14 195.2C1444.87 197.867 1444.61 200.133 1444.34 202H1276.74C1277.54 214.267 1280.87 225.067 1286.74 234.4C1292.87 243.467 1300.61 250.667 1309.94 256C1319.27 261.067 1329.27 263.6 1339.94 263.6C1351.67 263.6 1362.74 260.667 1373.14 254.8C1383.81 248.933 1391.01 241.2 1394.74 231.6L1432.34 242.4C1427.81 252.533 1420.87 261.733 1411.54 270C1402.47 278 1391.67 284.4 1379.14 289.2C1366.61 293.733 1353.01 296 1338.34 296ZM1275.54 172.8H1401.94C1401.14 160.8 1397.67 150.267 1391.54 141.2C1385.67 131.867 1378.07 124.667 1368.74 119.6C1359.67 114.267 1349.54 111.6 1338.34 111.6C1327.41 111.6 1317.27 114.267 1307.94 119.6C1298.87 124.667 1291.41 131.867 1285.54 141.2C1279.67 150.267 1276.34 160.8 1275.54 172.8Z"/>
</mask>
<path d="M48 7.99998L49.8736 7.30025L49.388 5.99998H48V7.99998ZM133.6 237.2L131.726 237.9L133.604 242.928L135.475 237.897L133.6 237.2ZM218.8 7.99998V5.99998H217.41L216.925 7.30312L218.8 7.99998ZM266.4 7.99998L268.261 8.73145L269.335 5.99998H266.4V7.99998ZM154.8 292V294H156.163L156.661 292.731L154.8 292ZM112.4 292L110.539 292.734L111.039 294H112.4V292ZM0.4 7.99998V5.99998H-2.53864L-1.46055 8.73372L0.4 7.99998ZM46.1264 8.69972L131.726 237.9L135.474 236.5L49.8736 7.30025L46.1264 8.69972ZM135.475 237.897L220.675 8.69685L216.925 7.30312L131.725 236.503L135.475 237.897ZM218.8 9.99998H266.4V5.99998H218.8V9.99998ZM264.539 7.26852L152.939 291.269L156.661 292.731L268.261 8.73145L264.539 7.26852ZM154.8 290H112.4V294H154.8V290ZM114.261 291.266L2.26055 7.26625L-1.46055 8.73372L110.539 292.734L114.261 291.266ZM0.4 9.99998H48V5.99998H0.4V9.99998ZM317.75 287.6L316.931 289.425L316.946 289.432L316.962 289.438L317.75 287.6ZM283.75 263.6L282.279 264.955L282.288 264.965L282.298 264.975L283.75 263.6ZM262.15 229.2L260.285 229.923L260.29 229.936L262.15 229.2ZM262.15 146L264.015 146.723L264.015 146.723L262.15 146ZM283.75 111.6L282.298 110.224L282.297 110.226L283.75 111.6ZM317.75 88L318.538 89.8383L318.547 89.8345L318.555 89.8306L317.75 88ZM406.15 88L405.331 89.8245L405.353 89.8345L405.376 89.8439L406.15 88ZM440.15 111.6L438.679 112.955L438.697 112.975L438.717 112.995L440.15 111.6ZM462.15 146L460.285 146.723L460.285 146.723L462.15 146ZM462.15 229.2L464.01 229.936L464.015 229.923L462.15 229.2ZM440.15 263.6L438.698 262.225L438.688 262.235L438.679 262.245L440.15 263.6ZM406.15 287.6L406.938 289.438L406.947 289.435L406.955 289.431L406.15 287.6ZM308.15 224L306.379 224.93L306.379 224.93L308.15 224ZM330.55 249.2L331.648 247.529L331.648 247.529L330.55 249.2ZM393.35 249.2L394.448 250.871L394.459 250.864L393.35 249.2ZM416.15 223.6L417.921 224.53L417.925 224.521L417.93 224.512L416.15 223.6ZM416.15 151.6L414.379 152.53L414.379 152.53L416.15 151.6ZM393.35 126.4L392.219 128.049L392.246 128.068L392.273 128.085L393.35 126.4ZM330.55 126.4L329.419 124.751L329.419 124.751L330.55 126.4ZM308.15 152L309.911 152.948L309.916 152.939L309.921 152.93L308.15 152ZM362.15 294C345.844 294 331.318 291.239 318.538 285.762L316.962 289.438C330.315 295.161 345.39 298 362.15 298V294ZM318.569 285.775C305.734 280.013 294.618 272.163 285.202 262.225L282.298 264.975C292.082 275.303 303.632 283.454 316.931 289.425L318.569 285.775ZM285.221 262.245C276.054 252.292 268.986 241.035 264.01 228.464L260.29 229.936C265.448 242.965 272.779 254.641 282.279 264.955L285.221 262.245ZM264.015 228.477C259.042 215.651 256.55 202.031 256.55 187.6H252.55C252.55 202.502 255.125 216.615 260.285 229.923L264.015 228.477ZM256.55 187.6C256.55 173.169 259.042 159.548 264.015 146.723L260.285 145.277C255.125 158.585 252.55 172.698 252.55 187.6H256.55ZM264.015 146.723C268.991 133.89 276.053 122.647 285.203 112.974L282.297 110.226C272.78 120.287 265.443 131.976 260.285 145.277L264.015 146.723ZM285.202 112.975C294.611 103.044 305.717 95.3329 318.538 89.8383L316.962 86.1617C303.65 91.8671 292.089 99.8895 282.298 110.224L285.202 112.975ZM318.555 89.8306C331.607 84.088 346.128 81.2 362.15 81.2V77.2C345.638 77.2 330.56 80.1786 316.945 86.1693L318.555 89.8306ZM362.15 81.2C378.173 81.2 392.555 84.0882 405.331 89.8245L406.969 86.1754C393.612 80.1784 378.661 77.2 362.15 77.2V81.2ZM405.376 89.8439C418.458 95.3385 429.55 103.043 438.679 112.955L441.621 110.245C432.084 99.8901 420.509 91.8615 406.924 86.156L405.376 89.8439ZM438.717 112.995C448.126 122.665 455.314 133.902 460.285 146.723L464.015 145.277C458.853 131.964 451.374 120.268 441.583 110.205L438.717 112.995ZM460.285 146.723C465.258 159.549 467.75 173.169 467.75 187.6H471.75C471.75 172.698 469.175 158.585 464.015 145.277L460.285 146.723ZM467.75 187.6C467.75 202.031 465.258 215.651 460.285 228.477L464.015 229.923C469.175 216.615 471.75 202.502 471.75 187.6H467.75ZM460.29 228.464C455.319 241.023 448.125 252.274 438.698 262.225L441.602 264.975C451.375 254.66 458.848 242.977 464.01 229.936L460.29 228.464ZM438.679 262.245C429.543 272.164 418.44 280.007 405.345 285.769L406.955 289.431C420.526 283.459 432.09 275.303 441.621 264.955L438.679 262.245ZM405.362 285.762C392.578 291.241 378.185 294 362.15 294V298C378.649 298 393.589 295.159 406.938 289.438L405.362 285.762ZM297.75 188C297.75 201.622 300.613 213.947 306.379 224.93L309.921 223.07C304.487 212.72 301.75 201.045 301.75 188H297.75ZM306.379 224.93C312.124 235.872 319.813 244.537 329.452 250.871L331.648 247.529C322.621 241.596 315.376 233.461 309.921 223.07L306.379 224.93ZM329.452 250.871C339.128 257.23 350.047 260.4 362.15 260.4V256.4C350.786 256.4 340.639 253.436 331.648 247.529L329.452 250.871ZM362.15 260.4C373.996 260.4 384.78 257.225 394.448 250.871L392.252 247.529C383.254 253.442 373.237 256.4 362.15 256.4V260.4ZM394.459 250.864C404.35 244.27 412.172 235.479 417.921 224.53L414.379 222.67C408.928 233.054 401.55 241.33 392.241 247.536L394.459 250.864ZM417.93 224.512C423.684 213.278 426.55 200.963 426.55 187.6H422.55C422.55 200.37 419.816 212.055 414.37 222.688L417.93 224.512ZM426.55 187.6C426.55 173.978 423.687 161.653 417.921 150.67L414.379 152.53C419.813 162.88 422.55 174.555 422.55 187.6H426.55ZM417.921 150.67C412.169 139.714 404.337 131.046 394.427 124.715L392.273 128.085C401.563 134.021 408.931 142.153 414.379 152.53L417.921 150.67ZM394.481 124.751C384.81 118.119 374.015 114.8 362.15 114.8V118.8C373.219 118.8 383.223 121.881 392.219 128.049L394.481 124.751ZM362.15 114.8C350.029 114.8 339.098 118.113 329.419 124.751L331.681 128.049C340.669 121.887 350.805 118.8 362.15 118.8V114.8ZM329.419 124.751C319.8 131.347 312.121 140.134 306.379 151.07L309.921 152.93C315.379 142.532 322.634 134.253 331.681 128.049L329.419 124.751ZM306.389 151.052C300.61 161.785 297.75 174.12 297.75 188H301.75C301.75 174.68 304.49 163.015 309.911 152.948L306.389 151.052ZM509.175 -7.62939e-06V-2.00001H507.175V-7.62939e-06H509.175ZM553.175 -7.62939e-06H555.175V-2.00001H553.175V-7.62939e-06ZM557.975 252L559.326 250.526L559.326 250.526L557.975 252ZM584.775 254.8L584.341 252.848L584.329 252.85L584.317 252.853L584.775 254.8ZM597.175 250.8L599.142 250.438L598.676 247.904L596.337 248.984L597.175 250.8ZM603.575 285.6L604.344 287.446L605.834 286.825L605.542 285.238L603.575 285.6ZM580.775 292.4L580.36 290.444L580.36 290.444L580.775 292.4ZM521.975 282.8L520.561 284.214L520.572 284.225L520.583 284.236L521.975 282.8ZM509.175 1.99999H553.175V-2.00001H509.175V1.99999ZM551.175 -7.62939e-06V231.6H555.175V-7.62939e-06H551.175ZM551.175 231.6C551.175 237.016 551.58 241.551 552.428 245.158C553.269 248.731 554.597 251.617 556.624 253.474L559.326 250.526C558.153 249.45 557.081 247.469 556.322 244.242C555.57 241.049 555.175 236.851 555.175 231.6H551.175ZM556.624 253.474C560.233 256.783 564.732 258.4 569.975 258.4V254.4C565.618 254.4 562.117 253.084 559.326 250.526L556.624 253.474ZM569.975 258.4C575.441 258.4 580.53 257.853 585.233 256.747L584.317 252.853C579.954 253.88 575.176 254.4 569.975 254.4V258.4ZM585.209 256.752C590.111 255.663 594.386 254.29 598.013 252.616L596.337 248.984C593.031 250.51 589.039 251.804 584.341 252.848L585.209 256.752ZM595.208 251.162L601.608 285.962L605.542 285.238L599.142 250.438L595.208 251.162ZM602.806 283.754C596.548 286.361 589.072 288.595 580.36 290.444L581.19 294.356C590.078 292.471 597.802 290.172 604.344 287.446L602.806 283.754ZM580.36 290.444C571.659 292.289 563.935 293.2 557.175 293.2V297.2C564.282 297.2 572.291 296.244 581.19 294.356L580.36 290.444ZM557.175 293.2C542.621 293.2 531.437 289.182 523.367 281.364L520.583 284.236C529.58 292.952 541.862 297.2 557.175 297.2V293.2ZM523.389 281.386C515.316 273.312 511.175 262.136 511.175 247.6H507.175C507.175 262.93 511.568 275.221 520.561 284.214L523.389 281.386ZM511.175 247.6V-7.62939e-06H507.175V247.6H511.175ZM627.088 82.8V80.8H625.088V82.8H627.088ZM671.088 82.8H673.088V80.8H671.088V82.8ZM681.088 244.4L679.445 245.541L679.463 245.567L679.482 245.593L681.088 244.4ZM735.088 253.2L734.292 251.365L734.281 251.37L734.269 251.375L735.088 253.2ZM756.688 238L755.246 236.614L755.245 236.615L756.688 238ZM772.688 213.2L774.534 213.969L774.688 213.6V213.2H772.688ZM772.688 82.8V80.8H770.688V82.8H772.688ZM816.688 82.8H818.688V80.8H816.688V82.8ZM819.488 253.2L820.993 251.883L820.993 251.883L819.488 253.2ZM828.687 256.8H830.687V254.921L828.812 254.804L828.687 256.8ZM828.687 292L829.035 293.97L830.687 293.678V292H828.687ZM817.488 293.6L817.306 291.608L817.306 291.608L817.488 293.6ZM789.088 287.6L787.792 289.124L787.815 289.143L787.838 289.162L789.088 287.6ZM779.888 270.4L777.889 270.477L777.892 270.553L777.901 270.629L779.888 270.4ZM779.088 249.6L781.086 249.523L780.833 242.936L777.383 248.553L779.088 249.6ZM742.688 284.4L743.607 286.176L743.62 286.17L743.632 286.163L742.688 284.4ZM643.888 274.4L645.466 273.172L643.888 274.4ZM629.088 210.8V82.8H625.088V210.8H629.088ZM627.088 84.8H671.088V80.8H627.088V84.8ZM669.088 82.8V202H673.088V82.8H669.088ZM669.088 202C669.088 220.851 672.444 235.46 679.445 245.541L682.73 243.259C676.398 234.14 673.088 220.483 673.088 202H669.088ZM679.482 245.593C686.843 255.502 697.478 260.4 711.088 260.4V256.4C698.564 256.4 689.198 251.965 682.693 243.207L679.482 245.593ZM711.088 260.4C719.643 260.4 727.922 258.604 735.906 255.025L734.269 251.375C726.787 254.729 719.065 256.4 711.088 256.4V260.4ZM735.883 255.035C744.141 251.457 751.558 246.232 758.13 239.385L755.245 236.615C749.017 243.102 742.034 248.01 734.292 251.365L735.883 255.035ZM758.129 239.386C764.981 232.26 770.446 223.779 774.534 213.969L770.841 212.431C766.929 221.821 761.727 229.873 755.246 236.614L758.129 239.386ZM774.688 213.2V82.8H770.688V213.2H774.688ZM772.688 84.8H816.688V80.8H772.688V84.8ZM814.688 82.8V242.4H818.688V82.8H814.688ZM814.688 242.4C814.688 247.608 815.627 251.825 817.982 254.517L820.993 251.883C819.615 250.309 818.688 247.325 818.688 242.4H814.688ZM817.982 254.517C820.344 257.216 824.031 258.513 828.563 258.796L828.812 254.804C824.811 254.554 822.364 253.451 820.993 251.883L817.982 254.517ZM826.687 256.8V292H830.687V256.8H826.687ZM828.34 290.03C823.835 290.825 820.162 291.349 817.306 291.608L817.669 295.592C820.68 295.318 824.474 294.775 829.035 293.97L828.34 290.03ZM817.306 291.608C814.427 291.87 811.688 292 809.088 292V296C811.82 296 814.681 295.863 817.669 295.592L817.306 291.608ZM809.088 292C801.46 292 795.257 289.974 790.337 286.038L787.838 289.162C793.585 293.759 800.715 296 809.088 296V292ZM790.383 286.076C785.434 281.87 782.616 276.599 781.874 270.171L777.901 270.629C778.759 278.068 782.074 284.263 787.792 289.124L790.383 286.076ZM781.886 270.323L781.086 249.523L777.089 249.677L777.889 270.477L781.886 270.323ZM777.383 248.553C768.225 263.468 756.347 274.813 741.743 282.637L743.632 286.163C758.894 277.987 771.283 266.132 780.792 250.647L777.383 248.553ZM741.768 282.624C727.136 290.201 711.055 294 693.488 294V298C711.654 298 728.372 294.066 743.607 286.176L741.768 282.624ZM693.488 294C672.101 294 656.21 286.986 645.466 273.172L642.309 275.628C653.965 290.614 671.141 298 693.488 298V294ZM645.466 273.172C634.651 259.267 629.088 238.58 629.088 210.8H625.088C625.088 239.02 630.724 260.733 642.309 275.628L645.466 273.172ZM1192.84 292V294H1194.84V292H1192.84ZM1148.84 292H1146.84V294H1148.84V292ZM1139.24 132L1140.87 130.847L1140.87 130.847L1139.24 132ZM1076.84 132.4L1078.15 133.908L1078.15 133.905L1076.84 132.4ZM1054.84 168L1052.92 167.441L1052.84 167.715V168H1054.84ZM1054.84 292V294H1056.84V292H1054.84ZM1010.84 292H1008.84V294H1010.84V292ZM1001.24 132L1002.87 130.847L1002.87 130.847L1001.24 132ZM939.238 132L937.942 130.476L937.933 130.484L937.923 130.492L939.238 132ZM916.838 167.6L914.927 167.009L914.838 167.298V167.6H916.838ZM916.838 292V294H918.838V292H916.838ZM872.837 292H870.837V294H872.837V292ZM872.837 82.8V80.8H870.837V82.8H872.837ZM912.838 82.8H914.838V80.8H912.838V82.8ZM912.838 124.8H910.838V132.422L914.58 125.782L912.838 124.8ZM945.238 91.2L946.241 92.9301L946.252 92.9239L945.238 91.2ZM1032.44 92.8L1031.08 94.2726L1031.09 94.2816L1031.1 94.2905L1032.44 92.8ZM1051.24 126.8L1049.27 127.148L1050.21 132.503L1052.96 127.811L1051.24 126.8ZM1084.44 91.6L1085.48 93.3057L1085.49 93.2998L1084.44 91.6ZM1160.84 86L1161.8 84.2464L1161.8 84.2464L1160.84 86ZM1180.04 104.8L1178.3 105.786L1178.3 105.799L1178.31 105.811L1180.04 104.8ZM1189.64 132L1187.67 132.353L1187.67 132.383L1187.68 132.412L1189.64 132ZM1192.84 290H1148.84V294H1192.84V290ZM1150.84 292V174.8H1146.84V292H1150.84ZM1150.84 174.8C1150.84 155.196 1147.63 140.422 1140.87 130.847L1137.6 133.153C1143.64 141.712 1146.84 155.471 1146.84 174.8H1150.84ZM1140.87 130.847C1134.05 121.187 1124.07 116.4 1111.24 116.4V120.4C1122.93 120.4 1131.62 124.68 1137.6 133.153L1140.87 130.847ZM1111.24 116.4C1098.41 116.4 1086.49 121.295 1075.52 130.895L1078.15 133.905C1088.52 124.838 1099.53 120.4 1111.24 120.4V116.4ZM1075.52 130.892C1064.8 140.237 1057.28 152.448 1052.92 167.441L1056.76 168.559C1060.93 154.219 1068.07 142.696 1078.15 133.908L1075.52 130.892ZM1052.84 168V292H1056.84V168H1052.84ZM1054.84 290H1010.84V294H1054.84V290ZM1012.84 292V174.8H1008.84V292H1012.84ZM1012.84 174.8C1012.84 155.196 1009.63 140.422 1002.87 130.847L999.604 133.153C1005.64 141.712 1008.84 155.471 1008.84 174.8H1012.84ZM1002.87 130.847C996.062 121.2 986.225 116.4 973.638 116.4V120.4C985.05 120.4 993.613 124.666 999.604 133.153L1002.87 130.847ZM973.638 116.4C960.83 116.4 948.916 121.148 937.942 130.476L940.533 133.524C950.892 124.718 961.912 120.4 973.638 120.4V116.4ZM937.923 130.492C927.212 139.83 919.557 152.029 914.927 167.009L918.748 168.191C923.185 153.838 930.463 142.303 940.552 133.508L937.923 130.492ZM914.838 167.6V292H918.838V167.6H914.838ZM916.838 290H872.837V294H916.838V290ZM874.837 292V82.8H870.837V292H874.837ZM872.837 84.8H912.838V80.8H872.837V84.8ZM910.838 82.8V124.8H914.838V82.8H910.838ZM914.58 125.782C922.688 111.397 933.244 100.468 946.241 92.93L944.234 89.4699C930.564 97.3985 919.52 108.87 911.095 123.818L914.58 125.782ZM946.252 92.9239C959.514 85.1222 974.625 81.2 991.638 81.2V77.2C973.984 77.2 958.161 81.2778 944.223 89.4761L946.252 92.9239ZM991.638 81.2C1008.62 81.2 1021.68 85.6354 1031.08 94.2726L1033.79 91.3273C1023.46 81.8312 1009.32 77.2 991.638 77.2V81.2ZM1031.1 94.2905C1040.9 103.053 1046.94 113.982 1049.27 127.148L1053.21 126.452C1050.73 112.418 1044.24 100.68 1033.77 91.3095L1031.1 94.2905ZM1052.96 127.811C1061.89 112.58 1072.74 101.107 1085.48 93.3057L1083.39 89.8943C1070 98.0932 1058.72 110.086 1049.51 125.789L1052.96 127.811ZM1085.49 93.2998C1098.48 85.2465 1113.31 81.2 1130.04 81.2V77.2C1112.63 77.2 1097.06 81.4201 1083.38 89.9002L1085.49 93.2998ZM1130.04 81.2C1142.07 81.2 1151.98 83.4234 1159.88 87.7536L1161.8 84.2464C1153.16 79.5099 1142.54 77.2 1130.04 77.2V81.2ZM1159.88 87.7536C1167.83 92.1131 1173.95 98.1177 1178.3 105.786L1181.78 103.814C1177.06 95.4823 1170.38 88.9535 1161.8 84.2464L1159.88 87.7536ZM1178.31 105.811C1182.71 113.309 1185.84 122.145 1187.67 132.353L1191.61 131.647C1189.71 121.055 1186.43 111.758 1181.76 103.789L1178.31 105.811ZM1187.68 132.412C1189.78 142.396 1190.84 153.057 1190.84 164.4H1194.84C1194.84 152.809 1193.76 141.87 1191.59 131.588L1187.68 132.412ZM1190.84 164.4V292H1194.84V164.4H1190.84ZM1293.94 287.6L1293.12 289.425L1293.14 289.435L1293.17 289.444L1293.94 287.6ZM1259.94 264L1258.49 265.375L1258.5 265.385L1258.51 265.395L1259.94 264ZM1237.54 229.6L1235.68 230.323L1235.68 230.346L1235.69 230.369L1237.54 229.6ZM1243.54 134L1245.29 134.974L1245.29 134.962L1243.54 134ZM1281.54 94.4L1282.58 96.11L1282.59 96.1038L1282.6 96.0976L1281.54 94.4ZM1395.14 94.4L1394.06 96.0814L1394.07 96.092L1394.09 96.1023L1395.14 94.4ZM1432.34 133.6L1434.1 132.648L1434.1 132.648L1432.34 133.6ZM1445.14 195.2L1447.13 195.399L1447.13 195.39L1447.13 195.381L1445.14 195.2ZM1444.34 202V204H1446.08L1446.32 202.283L1444.34 202ZM1276.74 202V200H1274.61L1274.74 202.13L1276.74 202ZM1286.74 234.4L1285.05 235.464L1285.07 235.493L1285.08 235.521L1286.74 234.4ZM1309.94 256L1308.95 257.736L1308.97 257.747L1308.99 257.758L1309.94 256ZM1373.14 254.8L1372.18 253.048L1372.17 253.053L1372.16 253.058L1373.14 254.8ZM1394.74 231.6L1395.29 229.678L1393.54 229.174L1392.88 230.875L1394.74 231.6ZM1432.34 242.4L1434.17 243.217L1435.11 241.114L1432.89 240.478L1432.34 242.4ZM1411.54 270L1412.86 271.5L1412.87 271.497L1411.54 270ZM1379.14 289.2L1379.82 291.081L1379.84 291.074L1379.86 291.068L1379.14 289.2ZM1275.54 172.8L1273.55 172.667L1273.4 174.8H1275.54V172.8ZM1401.94 172.8V174.8H1404.08L1403.94 172.667L1401.94 172.8ZM1391.54 141.2L1389.85 142.264L1389.87 142.293L1389.88 142.321L1391.54 141.2ZM1368.74 119.6L1367.73 121.324L1367.76 121.341L1367.79 121.358L1368.74 119.6ZM1307.94 119.6L1308.92 121.346L1308.92 121.341L1308.93 121.336L1307.94 119.6ZM1285.54 141.2L1287.22 142.287L1287.23 142.275L1287.23 142.264L1285.54 141.2ZM1338.34 294C1322.31 294 1307.77 291.241 1294.72 285.756L1293.17 289.444C1306.77 295.159 1321.84 298 1338.34 298V294ZM1294.76 285.775C1281.91 280.008 1270.79 272.284 1261.37 262.605L1258.51 265.395C1268.29 275.449 1279.83 283.459 1293.12 289.425L1294.76 285.775ZM1261.39 262.625C1251.96 252.666 1244.63 241.405 1239.39 228.831L1235.69 230.369C1241.12 243.395 1248.72 255.067 1258.49 265.375L1261.39 262.625ZM1239.41 228.877C1234.43 216.051 1231.94 202.431 1231.94 188H1227.94C1227.94 202.902 1230.52 217.015 1235.68 230.323L1239.41 228.877ZM1231.94 188C1231.94 168.586 1236.4 150.925 1245.29 134.974L1241.79 133.026C1232.55 149.608 1227.94 167.947 1227.94 188H1231.94ZM1245.29 134.962C1254.19 118.739 1266.61 105.796 1282.58 96.11L1280.5 92.69C1263.94 102.737 1251.02 116.194 1241.79 133.038L1245.29 134.962ZM1282.6 96.0976C1298.5 86.1886 1317.19 81.2 1338.74 81.2V77.2C1316.55 77.2 1297.11 82.3447 1280.48 92.7024L1282.6 96.0976ZM1338.74 81.2C1360.29 81.2 1378.7 86.1891 1394.06 96.0814L1396.22 92.7186C1380.12 82.3442 1360.93 77.2 1338.74 77.2V81.2ZM1394.09 96.1023C1409.8 105.788 1421.95 118.598 1430.58 134.552L1434.1 132.648C1425.13 116.068 1412.48 102.745 1396.19 92.6977L1394.09 96.1023ZM1430.58 134.552C1439.22 150.523 1443.54 167.662 1443.54 186H1447.54C1447.54 167.004 1443.06 149.21 1434.1 132.648L1430.58 134.552ZM1443.54 186C1443.54 189.145 1443.41 192.151 1443.15 195.019L1447.13 195.381C1447.41 192.383 1447.54 189.255 1447.54 186H1443.54ZM1443.15 195.001C1442.89 197.65 1442.62 199.887 1442.36 201.717L1446.32 202.283C1446.59 200.379 1446.86 198.083 1447.13 195.399L1443.15 195.001ZM1444.34 200H1276.74V204H1444.34V200ZM1274.74 202.13C1275.56 214.69 1278.98 225.818 1285.05 235.464L1288.43 233.336C1282.76 224.315 1279.52 213.844 1278.74 201.87L1274.74 202.13ZM1285.08 235.521C1291.39 244.836 1299.34 252.249 1308.95 257.736L1310.93 254.264C1301.87 249.085 1294.36 242.097 1288.4 233.279L1285.08 235.521ZM1308.99 257.758C1318.61 262.984 1328.94 265.6 1339.94 265.6V261.6C1329.61 261.6 1319.93 259.149 1310.89 254.242L1308.99 257.758ZM1339.94 265.6C1352.02 265.6 1363.43 262.575 1374.12 256.542L1372.16 253.058C1362.05 258.759 1351.32 261.6 1339.94 261.6V265.6ZM1374.1 256.552C1385.1 250.503 1392.67 242.439 1396.6 232.325L1392.88 230.875C1389.34 239.961 1382.51 247.364 1372.18 253.048L1374.1 256.552ZM1394.19 233.522L1431.79 244.322L1432.89 240.478L1395.29 229.678L1394.19 233.522ZM1430.52 241.583C1426.11 251.427 1419.36 260.402 1410.21 268.503L1412.87 271.497C1422.39 263.065 1429.5 253.64 1434.17 243.217L1430.52 241.583ZM1410.22 268.5C1401.35 276.326 1390.76 282.608 1378.43 287.332L1379.86 291.068C1392.59 286.192 1403.6 279.674 1412.86 271.5L1410.22 268.5ZM1378.46 287.319C1366.17 291.766 1352.8 294 1338.34 294V298C1353.22 298 1367.05 295.701 1379.82 291.081L1378.46 287.319ZM1275.54 174.8H1401.94V170.8H1275.54V174.8ZM1403.94 172.667C1403.12 160.349 1399.55 149.468 1393.2 140.079L1389.88 142.321C1395.8 151.066 1399.17 161.251 1399.95 172.933L1403.94 172.667ZM1393.23 140.136C1387.19 130.523 1379.34 123.079 1369.69 117.842L1367.79 121.358C1376.81 126.254 1384.16 133.21 1389.85 142.264L1393.23 140.136ZM1369.75 117.876C1360.36 112.35 1349.87 109.6 1338.34 109.6V113.6C1349.21 113.6 1358.99 116.183 1367.73 121.324L1369.75 117.876ZM1338.34 109.6C1327.07 109.6 1316.59 112.354 1306.95 117.864L1308.93 121.336C1317.96 116.179 1327.75 113.6 1338.34 113.6V109.6ZM1306.96 117.854C1297.59 123.094 1289.88 130.537 1283.85 140.136L1287.23 142.264C1292.93 133.197 1300.16 126.239 1308.92 121.346L1306.96 117.854ZM1283.86 140.113C1277.79 149.497 1274.37 160.367 1273.55 172.667L1277.54 172.933C1278.32 161.233 1281.56 151.036 1287.22 142.287L1283.86 140.113Z" fill="url(#paint0_linear_12_35)" mask="url(#path-1-outside-1_12_35)"/>
<defs>
<linearGradient id="paint0_linear_12_35" x1="759.5" y1="342" x2="761.817" y2="-100.501" gradientUnits="userSpaceOnUse">
<stop stop-color="#080808"/>
<stop offset="1" stop-color="#424242"/>
</linearGradient>
</defs>
</svg>
