<svg width="233" height="238" viewBox="0 0 233 238" fill="none" xmlns="http://www.w3.org/2000/svg">
<rect width="233" height="238" rx="40" fill="url(#paint0_linear_128_14)"/>
<rect width="233" height="238" rx="40" fill="url(#paint1_linear_128_14)"/>
<rect x="2" y="2" width="229" height="234" rx="38" stroke="#222222" stroke-opacity="0.28" stroke-width="4"/>
<rect x="109" y="56" width="15" height="125" rx="7.5" fill="url(#paint2_linear_128_14)" fill-opacity="0.83"/>
<rect x="129" y="70" width="15" height="97" rx="7.5" fill="url(#paint3_linear_128_14)" fill-opacity="0.83"/>
<rect x="149" y="82" width="15" height="73" rx="7.5" fill="url(#paint4_linear_128_14)" fill-opacity="0.83"/>
<rect x="169" y="97" width="15" height="48" rx="7.5" fill="url(#paint5_linear_128_14)" fill-opacity="0.83"/>
<rect x="89" y="70" width="15" height="97" rx="7.5" fill="url(#paint6_linear_128_14)" fill-opacity="0.83"/>
<rect x="69" y="82" width="15" height="73" rx="7.5" fill="url(#paint7_linear_128_14)" fill-opacity="0.83"/>
<path d="M50 102.5C50 98.3579 53.3579 95 57.5 95V95C61.6421 95 65 98.3579 65 102.5V135.5C65 139.642 61.6421 143 57.5 143V143C53.3579 143 50 139.642 50 135.5V102.5Z" fill="url(#paint8_linear_128_14)" fill-opacity="0.83"/>
<defs>
<linearGradient id="paint0_linear_128_14" x1="42.4976" y1="37.762" x2="151" y2="152.5" gradientUnits="userSpaceOnUse">
<stop stop-color="#AAAAAA"/>
<stop offset="1" stop-color="#000AFF"/>
</linearGradient>
<linearGradient id="paint1_linear_128_14" x1="-36.5" y1="-4.5" x2="225" y2="223.5" gradientUnits="userSpaceOnUse">
<stop stop-color="white" stop-opacity="0.68"/>
<stop offset="1" stop-color="#212121" stop-opacity="0.82"/>
</linearGradient>
<linearGradient id="paint2_linear_128_14" x1="116.5" y1="56" x2="116.5" y2="181" gradientUnits="userSpaceOnUse">
<stop stop-color="white"/>
<stop offset="0.0001" stop-color="white"/>
<stop offset="1" stop-color="#98A1F2" stop-opacity="0.33"/>
</linearGradient>
<linearGradient id="paint3_linear_128_14" x1="136.5" y1="70" x2="136.5" y2="167" gradientUnits="userSpaceOnUse">
<stop stop-color="white"/>
<stop offset="0.0001" stop-color="white"/>
<stop offset="1" stop-color="#98A1F2" stop-opacity="0.33"/>
</linearGradient>
<linearGradient id="paint4_linear_128_14" x1="156.5" y1="82" x2="156.5" y2="155" gradientUnits="userSpaceOnUse">
<stop stop-color="white"/>
<stop offset="0.0001" stop-color="white"/>
<stop offset="1" stop-color="#98A1F2" stop-opacity="0.33"/>
</linearGradient>
<linearGradient id="paint5_linear_128_14" x1="176.5" y1="97" x2="176.5" y2="145" gradientUnits="userSpaceOnUse">
<stop stop-color="white"/>
<stop offset="0.0001" stop-color="white"/>
<stop offset="1" stop-color="#98A1F2" stop-opacity="0.33"/>
</linearGradient>
<linearGradient id="paint6_linear_128_14" x1="96.5" y1="70" x2="96.5" y2="167" gradientUnits="userSpaceOnUse">
<stop stop-color="white"/>
<stop offset="0.0001" stop-color="white"/>
<stop offset="1" stop-color="#98A1F2" stop-opacity="0.33"/>
</linearGradient>
<linearGradient id="paint7_linear_128_14" x1="76.5" y1="82" x2="76.5" y2="155" gradientUnits="userSpaceOnUse">
<stop stop-color="white"/>
<stop offset="0.0001" stop-color="white"/>
<stop offset="1" stop-color="#98A1F2" stop-opacity="0.33"/>
</linearGradient>
<linearGradient id="paint8_linear_128_14" x1="227.5" y1="95" x2="227.5" y2="143" gradientUnits="userSpaceOnUse">
<stop stop-color="white"/>
<stop offset="0.0001" stop-color="white"/>
<stop offset="1" stop-color="#98A1F2" stop-opacity="0.33"/>
</linearGradient>
</defs>
</svg>
